<svg width="61" height="55" viewBox="0 0 61 55" fill="none" xmlns="http://www.w3.org/2000/svg">
<g clip-path="url(#clip0_1_13)">
<path d="M60.547 31.3218C61.1078 36.5914 59.6204 41.8915 56.3532 46.0608C52.7934 50.599 47.6305 53.2719 42.0104 54.2685C35.5522 55.4144 28.7222 55.0609 22.2457 54.2502C16.8755 53.5736 11.2097 52.4429 6.91847 48.9074C-1.79205 41.733 -2.01454 26.7959 4.77589 18.3475C6.96114 15.6289 9.85347 13.4558 13.1024 12.2032C12.8433 10.5787 13.5809 8.95428 14.8945 7.94851C15.4857 7.4944 16.1745 7.17438 16.9151 7.06466C17.9605 6.90922 18.8779 7.37858 19.905 7.36639C21.886 7.34201 21.5234 5.9248 22.3097 4.74226C22.5779 4.33996 22.9375 4.05651 23.4252 3.96508C25.6775 3.55363 27.2593 7.72603 29.2647 5.24819C30.4076 3.84012 30.2887 1.65487 31.8401 0.51501C33.0104 -0.347508 34.5465 -0.0488268 35.6223 0.825882C37.0121 1.95965 37.3169 3.8066 37.3382 5.5042C37.3657 7.8266 37.1615 10.2039 36.7256 12.4836C36.6921 12.6543 36.6586 12.8402 36.625 13.0413C48.2309 11.2431 59.2943 19.5666 60.547 31.3218ZM58.4318 39.8861C59.6966 36.3689 59.9679 32.4556 58.9743 28.5179C56.4721 18.5852 46.4236 12.4623 36.4361 14.0745C36.1648 15.4613 35.7321 17.04 34.8086 17.7288C33.7601 18.5121 32.5593 17.8141 31.7303 16.9821C31.6389 17.0156 31.5322 17.0034 31.4378 16.9089C27.4086 12.831 21.2094 11.1273 15.6503 12.4958C10.2619 13.8216 5.72679 17.7288 3.28858 22.6723C0.877794 27.5548 0.548635 33.3242 1.93537 38.5542C2.23405 38.2098 2.72474 38.0391 3.17886 37.8562C4.51378 37.3229 5.9188 36.9907 7.3543 36.8657C9.63403 36.6676 12.1149 37.0303 13.8399 38.6639C17.8203 42.437 14.0563 47.3744 10.8897 50.1753C11.3621 50.4191 11.8437 50.6477 12.3465 50.855C17.3357 52.8939 22.9802 53.4242 28.3107 53.7199C33.879 54.0307 39.7246 54.0704 45.107 52.4276C46.6492 51.9552 48.0999 51.3182 49.447 50.5441C47.5117 49.7852 45.4849 48.4625 44.6712 46.4967C43.9123 44.6497 44.3542 42.498 45.5306 40.9253C48.3376 37.1735 54.8751 37.2741 58.4318 39.8861ZM58.0326 40.8979C56.0728 40.3798 54.4301 39.4015 52.3363 39.2978C50.4893 39.2064 48.4473 39.7032 47.0819 41.0137C45.6129 42.4218 44.9942 44.6589 45.9786 46.5119C46.8594 48.1668 48.5967 48.9745 50.0566 50.0168C50.0962 50.0443 50.1267 50.0808 50.151 50.1174C53.7017 47.8834 56.4447 44.6467 58.0326 40.8979ZM35.9271 11.9746C36.3111 9.71622 36.6037 7.29629 36.4849 4.99827C36.4117 3.54754 36.0582 1.96575 34.6989 1.17942C32.983 0.185851 31.7791 1.42629 31.1878 2.94713C30.7032 4.19366 30.3832 5.60783 29.2434 6.45511C28.1401 7.27496 26.9819 6.98847 25.9762 6.16252C25.5525 5.81203 24.6961 4.76664 24.1536 4.8215C23.2789 4.90989 22.8339 5.62002 22.6023 6.32101C22.4103 6.89399 22.2061 7.43039 21.7032 7.80222C20.542 8.66474 19.0272 7.91804 17.7563 7.85708C15.437 7.74127 13.8217 9.77717 13.8613 11.9289C15.1962 11.4809 16.5799 11.1822 17.9971 11.0694C23.0046 10.6671 27.9511 12.4318 31.4408 16.019C31.8644 16.3207 32.2942 16.6164 32.7209 16.915C32.8123 16.979 32.855 17.0552 32.8641 17.1314C34.2386 17.549 34.833 16.2842 35.1591 15.2388C35.4913 14.1721 35.7412 13.0779 35.9271 11.9746ZM9.75899 49.5414C12.2673 47.2982 16.0008 43.7232 13.5413 40.1512C12.4044 38.4993 10.3045 37.9111 8.39968 37.8532C7.74441 37.8349 2.11519 38.1488 2.27062 39.3771C2.27672 39.4319 2.25234 39.4807 2.21272 39.5173C3.54154 43.7994 6.07728 47.2769 9.75899 49.5414Z" fill="#000072"/>
<path d="M58.9743 28.518C59.9679 32.4557 59.6966 36.369 58.4318 39.8861C54.875 37.2742 48.3376 37.1736 45.5306 40.9254C44.3541 42.4981 43.9122 44.6498 44.6711 46.4967C45.4849 48.4625 47.5116 49.7853 49.447 50.5442C48.0999 51.3183 46.6491 51.9553 45.1069 52.4277C39.7246 54.0704 33.879 54.0308 28.3107 53.7199C22.9802 53.4243 17.3357 52.894 12.3465 50.855C11.8436 50.6478 11.3621 50.4192 10.8897 50.1754C14.0563 47.3745 17.8203 42.4371 13.8399 38.664C12.1149 37.0304 9.63399 36.6677 7.35426 36.8658C5.91876 36.9907 4.51374 37.3229 3.17882 37.8563C2.7247 38.0392 2.23401 38.2099 1.93533 38.5542C0.548594 33.3243 0.877753 27.5549 3.28854 22.6723C5.72675 17.7289 10.2618 13.8216 15.6503 12.4958C21.2094 11.1274 27.4086 12.8311 31.4377 16.909C31.5322 17.0035 31.6389 17.0157 31.7303 16.9822C32.5593 17.8142 33.7601 18.5121 34.8085 17.7289C35.732 17.0401 36.1648 15.4613 36.4361 14.0746C46.4236 12.4623 56.4721 18.5853 58.9743 28.518ZM47.6 33.2572C50.8946 32.4618 56.4416 30.2064 55.6278 25.8694C55.3444 24.3577 54.2167 23.291 52.6776 23.1386C51.1232 22.9863 49.8554 23.7604 48.8801 24.8515C47.2952 22.267 43.1686 21.7214 41.6447 24.8942C40.8187 26.6131 42.0988 28.4936 43.132 29.8224C43.9976 30.9318 45.3325 32.221 46.8137 32.4252C46.7131 32.8427 47.0453 33.3913 47.6 33.2572ZM36.8353 33.8973C37.1584 33.4492 36.7225 32.7879 36.2075 32.8031C32.0686 32.9403 27.9236 33.1597 23.8183 33.7113C23.7817 33.6931 23.7512 33.6717 23.7147 33.6565C22.9863 33.3121 22.4163 34.2752 23.0838 34.7354C26.0523 36.7804 27.5975 39.9562 30.0693 42.4828C30.3862 42.8059 30.9104 42.7114 31.1421 42.3457C32.9433 39.4655 34.8482 36.6524 36.8353 33.8973ZM17.3479 33.0744C19.7526 31.3097 25.4153 28.2254 23.2301 24.3638C21.505 21.3222 17.7502 23.3063 16.3482 25.711C14.4159 23.7238 9.92657 23.5562 8.997 26.4942C7.73828 30.4716 13.3553 33.2237 16.5433 33.0439C16.5859 33.0408 16.6225 33.0317 16.6591 33.0165C16.8267 33.1963 17.0827 33.2664 17.3479 33.0744Z" fill="#1DA1F2"/>
<path d="M55.6278 25.8694C56.4416 30.2064 50.8947 32.4618 47.6 33.2572C47.0453 33.3913 46.7131 32.8427 46.8137 32.4252C45.3325 32.221 43.9976 30.9318 43.132 29.8224C42.0988 28.4936 40.8187 26.6131 41.6447 24.8942C43.1686 21.7214 47.2952 22.267 48.8801 24.8515C49.8554 23.7604 51.1232 22.9863 52.6776 23.1386C54.2167 23.291 55.3444 24.3578 55.6278 25.8694ZM54.1009 28.1857C54.7257 27.0276 54.744 25.2873 53.4517 24.5498C51.8181 23.6232 50.1327 24.9795 49.2519 26.2382C48.9654 26.6436 48.3467 26.5979 48.1913 26.098C47.0606 22.4956 41.1906 23.8427 43.0863 27.5366C43.5678 28.4722 44.1652 29.3744 44.8906 30.1394C45.6738 30.9684 46.6034 31.3585 47.5452 31.9436C49.8889 31.4011 52.9031 30.3984 54.1009 28.1857Z" fill="#000072"/>
<path d="M52.3362 39.2979C54.4301 39.4015 56.0728 40.3799 58.0325 40.898C56.4446 44.6467 53.7016 47.8835 50.151 50.1175C50.1266 50.0809 50.0961 50.0443 50.0565 50.0169C48.5966 48.9746 46.8594 48.1669 45.9786 46.512C44.9942 44.6589 45.6129 42.4219 47.0819 41.0138C48.4473 39.7033 50.4893 39.2065 52.3362 39.2979Z" fill="#FACCE3"/>
<path d="M53.4517 24.5498C54.744 25.2873 54.7257 27.0276 54.1009 28.1857C52.9031 30.3984 49.8889 31.4011 47.5452 31.9436C46.6034 31.3585 45.6738 30.9684 44.8906 30.1394C44.1652 29.3744 43.5678 28.4722 43.0863 27.5366C41.1906 23.8427 47.0606 22.4956 48.1913 26.098C48.3467 26.5979 48.9654 26.6436 49.2519 26.2382C50.1327 24.9795 51.8181 23.6232 53.4517 24.5498Z" fill="#FF2247"/>
<path d="M36.2075 32.8031C36.7225 32.7879 37.1584 33.4492 36.8353 33.8973C34.8482 36.6524 32.9433 39.4655 31.1421 42.3457C30.9104 42.7114 30.3862 42.8059 30.0693 42.4828C27.5975 39.9562 26.0523 36.7805 23.0838 34.7354C22.4163 34.2752 22.9863 33.3121 23.7147 33.6565C23.7512 33.6717 23.7817 33.6931 23.8183 33.7114C27.9236 33.1597 32.0686 32.9403 36.2075 32.8031ZM30.4533 40.8827C31.8522 38.664 33.2908 36.4726 34.7842 34.3148C31.6206 34.4489 28.4539 34.6043 25.2873 34.6592C27.3537 36.3233 28.7221 38.8804 30.4533 40.8827Z" fill="#000072"/>
<path d="M36.4848 4.99834C36.6037 7.29636 36.3111 9.71628 35.9271 11.9747C35.7412 13.078 35.4912 14.1721 35.159 15.2388C34.8329 16.2842 34.2386 17.549 32.8641 17.1315C32.8549 17.0553 32.8123 16.9791 32.7208 16.9151C32.2941 16.6164 31.8644 16.3208 31.4408 16.0191C27.9511 12.4318 23.0045 10.6672 17.9971 11.0695C16.5798 11.1823 15.1962 11.4809 13.8612 11.929C13.8216 9.77724 15.4369 7.74133 17.7563 7.85715C19.0272 7.9181 20.5419 8.6648 21.7031 7.80229C22.206 7.43046 22.4102 6.89405 22.6022 6.32107C22.8339 5.62009 23.2788 4.90996 24.1535 4.82157C24.6961 4.76671 25.5525 5.81209 25.9761 6.16259C26.9819 6.98853 28.14 7.27502 29.2433 6.45517C30.3832 5.60789 30.7032 4.19373 31.1878 2.94719C31.7791 1.42636 32.9829 0.185918 34.6988 1.17949C36.0581 1.96581 36.4117 3.5476 36.4848 4.99834Z" fill="#FF2247"/>
<path d="M34.7842 34.3148C33.2908 36.4726 31.8522 38.664 30.4533 40.8827C28.7222 38.8804 27.3537 36.3233 25.2873 34.6592C28.454 34.6043 31.6206 34.4489 34.7842 34.3148Z" fill="#F39200"/>
<path d="M23.2301 24.3639C25.4153 28.2254 19.7526 31.3097 17.3479 33.0744C17.0827 33.2664 16.8267 33.1963 16.6591 33.0165C16.6225 33.0317 16.5859 33.0408 16.5433 33.0439C13.3553 33.2237 7.73828 30.4716 8.997 26.4942C9.92657 23.5562 14.4159 23.7238 16.3482 25.711C17.7502 23.3063 21.505 21.3222 23.2301 24.3639ZM22.3706 26.7106C22.7881 24.8515 21.3466 23.6263 19.5057 24.2054C18.1799 24.6229 17.3144 25.7323 17.034 27.0642C16.9303 27.5549 16.1928 27.6341 15.9642 27.2044C14.611 24.6778 8.75623 25.1502 10.3624 28.6795C11.4017 30.9623 14.3062 31.7516 16.5097 32.3185C16.5524 32.2088 16.6225 32.1082 16.7322 32.0259C18.5243 30.7154 21.8403 29.0787 22.3706 26.7106Z" fill="#000072"/>
<path d="M19.5057 24.2054C21.3466 23.6263 22.7882 24.8515 22.3706 26.7106C21.8403 29.0787 18.5243 30.7154 16.7322 32.0259C16.6225 32.1082 16.5524 32.2088 16.5098 32.3185C14.3062 31.7516 11.4017 30.9623 10.3624 28.6795C8.75623 25.1502 14.611 24.6778 15.9642 27.2044C16.1928 27.6341 16.9303 27.5549 17.034 27.0642C17.3144 25.7323 18.1799 24.6229 19.5057 24.2054Z" fill="#FF2247"/>
<path d="M13.5412 40.1513C16.0008 43.7233 12.2673 47.2983 9.75895 49.5414C6.07725 47.2769 3.5415 43.7994 2.21268 39.5173C2.2523 39.4808 2.27668 39.432 2.27058 39.3771C2.11515 38.1489 7.74437 37.835 8.39964 37.8533C10.3045 37.9112 12.4044 38.4994 13.5412 40.1513Z" fill="#FACCE3"/>
</g>
<defs>
<clipPath id="clip0_1_13">
<rect width="60.6627" height="55" fill="white"/>
</clipPath>
</defs>
</svg>
