<svg width="211" height="60" viewBox="0 0 211 60" fill="none" xmlns="http://www.w3.org/2000/svg">
<path d="M91.688 20.212C91.688 21.7053 91.2213 22.8347 90.288 23.6C89.3733 24.3653 87.7493 24.748 85.416 24.748H76.68V7.024H77.772H85.136C86.6853 7.024 87.8893 7.192 88.748 7.528C89.6253 7.84533 90.2413 8.32133 90.596 8.956C90.9507 9.59067 91.128 10.384 91.128 11.336C91.128 12.6427 90.8107 13.66 90.176 14.388C89.56 15.0973 88.3933 15.5267 86.676 15.676V15.76C87.9453 15.8533 88.944 16.068 89.672 16.404C90.4 16.7213 90.9133 17.188 91.212 17.804C91.5293 18.42 91.688 19.2227 91.688 20.212ZM83.904 10.552H81.16V14.024H83.904C84.8187 14.024 85.4813 13.912 85.892 13.688C86.3027 13.4453 86.508 12.9787 86.508 12.288C86.508 11.616 86.3027 11.1587 85.892 10.916C85.4813 10.6733 84.8187 10.552 83.904 10.552ZM84.464 17.692H81.16V21.248H84.464C85.3787 21.248 86.0413 21.1267 86.452 20.884C86.8627 20.6227 87.068 20.1467 87.068 19.456C87.068 18.7467 86.8627 18.28 86.452 18.056C86.0413 17.8133 85.3787 17.692 84.464 17.692ZM98.6873 24.748H94.2073V5.904H98.6873V24.748ZM106.535 25C104.818 25 103.595 24.5427 102.867 23.628C102.139 22.7133 101.775 21.4067 101.775 19.708V11.112H106.255L106.283 18.616C106.283 19.456 106.432 20.0533 106.731 20.408C107.03 20.744 107.636 20.912 108.551 20.912C109.428 20.912 110.016 20.7627 110.315 20.464C110.632 20.1467 110.8 19.6147 110.819 18.868V11.112H115.299V24.748H111.043L110.819 23.208H110.735C110.492 23.7493 109.998 24.188 109.251 24.524C108.504 24.8413 107.599 25 106.535 25ZM130.665 24.3C130.142 24.4867 129.414 24.6547 128.481 24.804C127.566 24.9347 126.474 25 125.205 25C123.599 25 122.227 24.7947 121.089 24.384C119.969 23.9547 119.119 23.236 118.541 22.228C117.962 21.2013 117.673 19.7827 117.673 17.972C117.673 15.508 118.233 13.7253 119.353 12.624C120.491 11.5227 122.246 10.972 124.617 10.972C126.315 10.972 127.65 11.2147 128.621 11.7C129.61 12.1853 130.31 12.876 130.721 13.772C131.15 14.6493 131.365 15.6947 131.365 16.908C131.365 17.2627 131.346 17.6453 131.309 18.056C131.29 18.4667 131.243 18.868 131.169 19.26L131.057 19.372H121.845C121.975 20.1933 122.358 20.7347 122.993 20.996C123.646 21.2573 124.701 21.388 126.157 21.388C127.127 21.388 127.93 21.3693 128.565 21.332C129.218 21.276 129.881 21.2013 130.553 21.108L130.665 21.192V24.3ZM127.473 16.432C127.473 15.984 127.398 15.6013 127.249 15.284C127.118 14.948 126.847 14.696 126.437 14.528C126.026 14.3413 125.419 14.248 124.617 14.248C123.441 14.248 122.666 14.4533 122.293 14.864C121.938 15.256 121.761 15.7787 121.761 16.432H127.473Z" fill="#1DA1F2"/>
<path d="M89.896 50.912V54.44C89 54.6267 88.1227 54.7667 87.264 54.86C86.4053 54.9533 85.388 55 84.212 55C82.7 55 81.4213 54.8693 80.376 54.608C79.3493 54.3467 78.5187 53.8893 77.884 53.236C77.268 52.564 76.82 51.6213 76.54 50.408C76.26 49.1947 76.12 47.636 76.12 45.732C76.12 43.9027 76.26 42.4 76.54 41.224C76.82 40.048 77.268 39.1427 77.884 38.508C78.5187 37.8547 79.3493 37.4067 80.376 37.164C81.4213 36.9027 82.7 36.772 84.212 36.772C85.388 36.772 86.4053 36.8187 87.264 36.912C88.1227 36.9867 89 37.1267 89.896 37.332V40.972L89.812 41.028C89.028 40.8413 88.272 40.7107 87.544 40.636C86.816 40.5427 85.92 40.496 84.856 40.496C83.9973 40.496 83.288 40.5613 82.728 40.692C82.1867 40.804 81.7573 41.0373 81.44 41.392C81.1227 41.7467 80.8987 42.2693 80.768 42.96C80.656 43.6507 80.6 44.5747 80.6 45.732C80.6 46.9453 80.656 47.9253 80.768 48.672C80.8987 49.4 81.1227 49.9507 81.44 50.324C81.7573 50.6973 82.1867 50.9493 82.728 51.08C83.288 51.2107 83.9973 51.276 84.856 51.276C85.9013 51.276 86.788 51.248 87.516 51.192C88.2627 51.1173 89.0093 50.9867 89.756 50.8L89.896 50.912ZM96.7459 54.748H92.2659V35.932H96.7459V43.604H96.8299C97.0913 42.764 97.5673 42.12 98.2579 41.672C98.9673 41.2053 99.8913 40.972 101.03 40.972C102.113 40.972 102.999 41.1493 103.69 41.504C104.399 41.8587 104.922 42.484 105.258 43.38C105.613 44.2573 105.79 45.4987 105.79 47.104V54.748H101.31L101.282 47.972C101.282 46.9267 101.123 46.18 100.806 45.732C100.489 45.284 99.8913 45.06 99.0139 45.06C98.2299 45.06 97.6606 45.2653 97.3059 45.676C96.9513 46.0867 96.7646 46.7773 96.7459 47.748V54.748ZM113.064 36.044C113.12 36.716 113.148 37.276 113.148 37.724C113.148 37.9853 113.139 38.256 113.12 38.536C113.12 38.7973 113.102 39.096 113.064 39.432C112.672 39.5067 112.29 39.5627 111.916 39.6C111.543 39.6373 111.17 39.656 110.796 39.656C110.442 39.656 110.078 39.6373 109.704 39.6C109.35 39.5627 108.986 39.5067 108.612 39.432C108.575 39.1147 108.547 38.8253 108.528 38.564C108.51 38.284 108.5 38.0133 108.5 37.752C108.5 37.5093 108.51 37.248 108.528 36.968C108.547 36.688 108.575 36.38 108.612 36.044C108.986 35.9507 109.359 35.8947 109.732 35.876C110.124 35.8387 110.507 35.82 110.88 35.82C111.235 35.82 111.59 35.8387 111.944 35.876C112.318 35.8947 112.691 35.9507 113.064 36.044ZM113.064 54.748H108.584V41.112H113.064V54.748ZM126.776 50.8V54.44C126.31 54.6267 125.619 54.7667 124.704 54.86C123.79 54.9533 122.819 55 121.792 55C120.318 55 119.086 54.7947 118.096 54.384C117.126 53.9733 116.398 53.264 115.912 52.256C115.446 51.248 115.203 49.848 115.184 48.056C115.184 46.208 115.436 44.7707 115.94 43.744C116.463 42.7173 117.219 41.9987 118.208 41.588C119.198 41.1773 120.383 40.972 121.764 40.972C122.586 40.972 123.454 41.028 124.368 41.14C125.283 41.252 126.03 41.4013 126.608 41.588L126.636 45.34L126.552 45.396C125.992 45.284 125.395 45.2 124.76 45.144C124.126 45.088 123.5 45.06 122.884 45.06C121.634 45.06 120.766 45.2933 120.28 45.76C119.795 46.2267 119.552 47.0107 119.552 48.112C119.552 48.952 119.655 49.5773 119.86 49.988C120.066 50.3987 120.411 50.6693 120.896 50.8C121.382 50.9307 122.044 50.996 122.884 50.996C123.538 50.996 124.163 50.968 124.76 50.912C125.358 50.856 125.992 50.7907 126.664 50.716L126.776 50.8ZM133.769 54.748H129.289V35.904H133.769V46.88H133.825L137.353 41.112H142.281V41.224L138.137 47.664V47.776L142.953 54.748H137.801L133.853 48.448L133.769 48.42V54.748ZM156.34 54.3C155.818 54.4867 155.09 54.6547 154.156 54.804C153.242 54.9347 152.15 55 150.88 55C149.275 55 147.903 54.7947 146.764 54.384C145.644 53.9547 144.795 53.236 144.216 52.228C143.638 51.2013 143.348 49.7827 143.348 47.972C143.348 45.508 143.908 43.7253 145.028 42.624C146.167 41.5227 147.922 40.972 150.292 40.972C151.991 40.972 153.326 41.2147 154.296 41.7C155.286 42.1853 155.986 42.876 156.396 43.772C156.826 44.6493 157.04 45.6947 157.04 46.908C157.04 47.2627 157.022 47.6453 156.984 48.056C156.966 48.4667 156.919 48.868 156.844 49.26L156.732 49.372H147.52C147.651 50.1933 148.034 50.7347 148.668 50.996C149.322 51.2573 150.376 51.388 151.832 51.388C152.803 51.388 153.606 51.3693 154.24 51.332C154.894 51.276 155.556 51.2013 156.228 51.108L156.34 51.192V54.3ZM153.148 46.432C153.148 45.984 153.074 45.6013 152.924 45.284C152.794 44.948 152.523 44.696 152.112 44.528C151.702 44.3413 151.095 44.248 150.292 44.248C149.116 44.248 148.342 44.4533 147.968 44.864C147.614 45.256 147.436 45.7787 147.436 46.432H153.148ZM163.902 54.748H159.422V41.112H163.678L163.902 43.604H163.986C164.248 42.764 164.714 42.12 165.386 41.672C166.058 41.2053 166.992 40.972 168.186 40.972C169.81 40.972 171.005 41.4293 171.77 42.344C172.554 43.2587 172.946 44.8453 172.946 47.104V54.748H168.466L168.438 47.972C168.438 46.9267 168.28 46.18 167.962 45.732C167.645 45.284 167.048 45.06 166.17 45.06C165.349 45.06 164.77 45.2653 164.434 45.676C164.098 46.068 163.921 46.7493 163.902 47.72V54.748Z" fill="#111111"/>
<g clip-path="url(#clip0_22_412)">
<path d="M60.547 34.3218C61.1078 39.5914 59.6204 44.8915 56.3532 49.0608C52.7934 53.599 47.6305 56.2718 42.0105 57.2685C35.5522 58.4144 28.7222 58.0609 22.2457 57.2502C16.8755 56.5736 11.2097 55.4429 6.91847 51.9074C-1.79205 44.733 -2.01454 29.7959 4.77589 21.3475C6.96114 18.6289 9.85347 16.4558 13.1024 15.2032C12.8433 13.5787 13.5809 11.9543 14.8945 10.9485C15.4857 10.4944 16.1745 10.1744 16.9151 10.0647C17.9605 9.90922 18.8779 10.3786 19.905 10.3664C21.886 10.342 21.5234 8.9248 22.3097 7.74226C22.5779 7.33996 22.9375 7.05651 23.4252 6.96508C25.6775 6.55363 27.2593 10.726 29.2647 8.24819C30.4076 6.84012 30.2887 4.65487 31.8401 3.51501C33.0104 2.65249 34.5465 2.95117 35.6223 3.82588C37.0121 4.95965 37.3169 6.8066 37.3382 8.5042C37.3657 10.8266 37.1615 13.2039 36.7256 15.4836C36.6921 15.6543 36.6586 15.8402 36.625 16.0413C48.2309 14.2431 59.2943 22.5666 60.547 34.3218ZM58.4318 42.8861C59.6966 39.3689 59.9679 35.4556 58.9743 31.5179C56.4721 21.5852 46.4236 15.4623 36.4361 17.0745C36.1648 18.4613 35.7321 20.04 34.8086 20.7288C33.7601 21.5121 32.5593 20.8141 31.7303 19.9821C31.6389 20.0156 31.5322 20.0034 31.4378 19.9089C27.4086 15.831 21.2094 14.1273 15.6503 15.4958C10.2619 16.8216 5.72679 20.7288 3.28858 25.6723C0.877794 30.5548 0.548635 36.3242 1.93537 41.5542C2.23405 41.2098 2.72474 41.0391 3.17886 40.8562C4.51378 40.3229 5.9188 39.9907 7.3543 39.8657C9.63403 39.6676 12.1149 40.0303 13.8399 41.6639C17.8203 45.437 14.0563 50.3744 10.8897 53.1753C11.3621 53.4191 11.8437 53.6477 12.3465 53.855C17.3357 55.8939 22.9802 56.4242 28.3107 56.7199C33.879 57.0307 39.7246 57.0704 45.107 55.4276C46.6492 54.9552 48.0999 54.3182 49.447 53.5441C47.5117 52.7852 45.4849 51.4625 44.6712 49.4967C43.9123 47.6497 44.3542 45.498 45.5306 43.9253C48.3376 40.1735 54.8751 40.2741 58.4318 42.8861ZM58.0326 43.8979C56.0728 43.3798 54.4301 42.4015 52.3363 42.2978C50.4893 42.2064 48.4473 42.7032 47.0819 44.0137C45.6129 45.4218 44.9942 47.6589 45.9786 49.5119C46.8594 51.1668 48.5967 51.9745 50.0566 53.0168C50.0962 53.0443 50.1267 53.0808 50.151 53.1174C53.7017 50.8834 56.4447 47.6467 58.0326 43.8979ZM35.9271 14.9746C36.3111 12.7162 36.6037 10.2963 36.4849 7.99827C36.4117 6.54754 36.0582 4.96575 34.6989 4.17942C32.983 3.18585 31.7791 4.42629 31.1878 5.94713C30.7032 7.19366 30.3832 8.60783 29.2434 9.45511C28.1401 10.275 26.9819 9.98847 25.9762 9.16252C25.5525 8.81203 24.6961 7.76664 24.1536 7.8215C23.2789 7.90989 22.8339 8.62002 22.6023 9.32101C22.4103 9.89399 22.2061 10.4304 21.7032 10.8022C20.542 11.6647 19.0272 10.918 17.7563 10.8571C15.437 10.7413 13.8217 12.7772 13.8613 14.9289C15.1962 14.4809 16.5799 14.1822 17.9971 14.0694C23.0046 13.6671 27.9511 15.4318 31.4408 19.019C31.8644 19.3207 32.2942 19.6164 32.7209 19.915C32.8123 19.979 32.855 20.0552 32.8641 20.1314C34.2386 20.549 34.833 19.2842 35.1591 18.2388C35.4913 17.1721 35.7412 16.0779 35.9271 14.9746ZM9.75899 52.5414C12.2673 50.2982 16.0008 46.7232 13.5413 43.1512C12.4044 41.4993 10.3045 40.9111 8.39968 40.8532C7.74441 40.8349 2.11519 41.1488 2.27062 42.3771C2.27672 42.4319 2.25234 42.4807 2.21272 42.5173C3.54154 46.7994 6.07728 50.2769 9.75899 52.5414Z" fill="#000072"/>
<path d="M58.9743 31.518C59.9679 35.4557 59.6966 39.369 58.4318 42.8861C54.875 40.2742 48.3376 40.1736 45.5306 43.9254C44.3541 45.4981 43.9122 47.6498 44.6711 49.4967C45.4849 51.4625 47.5116 52.7853 49.447 53.5442C48.0999 54.3183 46.6491 54.9553 45.1069 55.4277C39.7246 57.0704 33.879 57.0308 28.3107 56.7199C22.9802 56.4243 17.3357 55.894 12.3465 53.855C11.8436 53.6478 11.3621 53.4192 10.8897 53.1754C14.0563 50.3745 17.8203 45.4371 13.8399 41.664C12.1149 40.0304 9.63399 39.6677 7.35426 39.8658C5.91876 39.9907 4.51374 40.3229 3.17882 40.8563C2.7247 41.0392 2.23401 41.2098 1.93533 41.5542C0.548595 36.3243 0.877753 30.5549 3.28854 25.6723C5.72675 20.7289 10.2618 16.8216 15.6503 15.4958C21.2094 14.1274 27.4086 15.8311 31.4377 19.909C31.5322 20.0035 31.6389 20.0157 31.7303 19.9822C32.5593 20.8142 33.7601 21.5121 34.8085 20.7289C35.732 20.0401 36.1648 18.4613 36.436 17.0746C46.4236 15.4623 56.4721 21.5853 58.9743 31.518ZM47.6 36.2572C50.8947 35.4618 56.4416 33.2064 55.6278 28.8694C55.3444 27.3577 54.2167 26.291 52.6776 26.1386C51.1232 25.9863 49.8554 26.7604 48.8801 27.8515C47.2952 25.267 43.1686 24.7214 41.6447 27.8942C40.8187 29.6131 42.0988 31.4936 43.132 32.8224C43.9976 33.9318 45.3325 35.221 46.8137 35.4252C46.7131 35.8427 47.0453 36.3913 47.6 36.2572ZM36.8353 36.8973C37.1584 36.4492 36.7225 35.7879 36.2075 35.8031C32.0686 35.9403 27.9236 36.1597 23.8183 36.7113C23.7817 36.6931 23.7512 36.6717 23.7147 36.6565C22.9863 36.3121 22.4163 37.2752 23.0838 37.7354C26.0523 39.7804 27.5975 42.9562 30.0693 45.4828C30.3862 45.8059 30.9104 45.7114 31.1421 45.3457C32.9433 42.4655 34.8482 39.6524 36.8353 36.8973ZM17.3479 36.0744C19.7526 34.3097 25.4153 31.2254 23.2301 27.3638C21.505 24.3222 17.7502 26.3063 16.3482 28.711C14.4159 26.7238 9.92657 26.5562 8.997 29.4942C7.73828 33.4716 13.3553 36.2237 16.5433 36.0439C16.5859 36.0408 16.6225 36.0317 16.6591 36.0165C16.8267 36.1963 17.0827 36.2664 17.3479 36.0744Z" fill="#1DA1F2"/>
<path d="M55.6278 28.8694C56.4416 33.2064 50.8947 35.4618 47.6 36.2572C47.0453 36.3913 46.7131 35.8427 46.8137 35.4252C45.3325 35.221 43.9976 33.9318 43.132 32.8224C42.0988 31.4936 40.8187 29.6131 41.6447 27.8942C43.1686 24.7214 47.2952 25.267 48.8801 27.8515C49.8554 26.7604 51.1232 25.9863 52.6776 26.1386C54.2167 26.291 55.3444 27.3578 55.6278 28.8694ZM54.1009 31.1857C54.7257 30.0276 54.744 28.2873 53.4517 27.5498C51.8181 26.6232 50.1327 27.9795 49.2519 29.2382C48.9654 29.6436 48.3467 29.5979 48.1913 29.098C47.0606 25.4956 41.1906 26.8427 43.0863 30.5366C43.5678 31.4722 44.1652 32.3744 44.8906 33.1394C45.6738 33.9684 46.6034 34.3585 47.5452 34.9436C49.8889 34.4011 52.9031 33.3984 54.1009 31.1857Z" fill="#000072"/>
<path d="M52.3362 42.2979C54.4301 42.4015 56.0728 43.3799 58.0325 43.898C56.4446 47.6467 53.7016 50.8835 50.151 53.1175C50.1266 53.0809 50.0961 53.0443 50.0565 53.0169C48.5966 51.9746 46.8594 51.1669 45.9786 49.512C44.9942 47.6589 45.6129 45.4219 47.0819 44.0138C48.4473 42.7033 50.4893 42.2065 52.3362 42.2979Z" fill="#FACCE3"/>
<path d="M53.4517 27.5498C54.744 28.2873 54.7257 30.0276 54.1009 31.1857C52.9031 33.3984 49.8889 34.4011 47.5452 34.9436C46.6034 34.3585 45.6738 33.9684 44.8906 33.1394C44.1652 32.3744 43.5678 31.4722 43.0863 30.5366C41.1906 26.8427 47.0606 25.4956 48.1913 29.098C48.3467 29.5979 48.9654 29.6436 49.2519 29.2382C50.1327 27.9795 51.8181 26.6232 53.4517 27.5498Z" fill="#FF2247"/>
<path d="M36.2075 35.8031C36.7225 35.7879 37.1584 36.4492 36.8353 36.8973C34.8482 39.6524 32.9433 42.4655 31.1421 45.3457C30.9104 45.7114 30.3862 45.8059 30.0693 45.4828C27.5975 42.9562 26.0523 39.7805 23.0838 37.7354C22.4163 37.2752 22.9863 36.3121 23.7147 36.6565C23.7512 36.6717 23.7817 36.6931 23.8183 36.7114C27.9236 36.1597 32.0686 35.9403 36.2075 35.8031ZM30.4533 43.8827C31.8522 41.664 33.2908 39.4726 34.7842 37.3148C31.6206 37.4489 28.4539 37.6043 25.2873 37.6592C27.3537 39.3233 28.7221 41.8804 30.4533 43.8827Z" fill="#000072"/>
<path d="M36.4848 7.99834C36.6037 10.2964 36.3111 12.7163 35.9271 14.9747C35.7412 16.078 35.4912 17.1721 35.159 18.2388C34.8329 19.2842 34.2386 20.549 32.8641 20.1315C32.8549 20.0553 32.8123 19.9791 32.7208 19.9151C32.2941 19.6164 31.8644 19.3208 31.4408 19.0191C27.9511 15.4318 23.0045 13.6672 17.9971 14.0695C16.5798 14.1823 15.1962 14.4809 13.8612 14.929C13.8216 12.7772 15.4369 10.7413 17.7563 10.8571C19.0272 10.9181 20.5419 11.6648 21.7031 10.8023C22.206 10.4305 22.4102 9.89405 22.6022 9.32107C22.8339 8.62009 23.2788 7.90996 24.1535 7.82157C24.6961 7.76671 25.5525 8.81209 25.9761 9.16259C26.9819 9.98853 28.14 10.275 29.2433 9.45517C30.3832 8.60789 30.7032 7.19373 31.1878 5.94719C31.7791 4.42636 32.9829 3.18592 34.6988 4.17949C36.0581 4.96581 36.4117 6.5476 36.4848 7.99834Z" fill="#FF2247"/>
<path d="M34.7842 37.3148C33.2908 39.4726 31.8522 41.664 30.4533 43.8827C28.7222 41.8804 27.3537 39.3233 25.2873 37.6592C28.454 37.6043 31.6206 37.4489 34.7842 37.3148Z" fill="#F39200"/>
<path d="M23.2301 27.3639C25.4153 31.2254 19.7526 34.3097 17.3479 36.0744C17.0827 36.2664 16.8267 36.1963 16.6591 36.0165C16.6225 36.0317 16.5859 36.0408 16.5433 36.0439C13.3553 36.2237 7.73828 33.4716 8.997 29.4942C9.92657 26.5562 14.4159 26.7238 16.3482 28.711C17.7502 26.3063 21.505 24.3222 23.2301 27.3639ZM22.3706 29.7106C22.7881 27.8515 21.3466 26.6263 19.5057 27.2054C18.1799 27.6229 17.3144 28.7323 17.034 30.0642C16.9303 30.5549 16.1928 30.6341 15.9642 30.2044C14.611 27.6778 8.75623 28.1502 10.3624 31.6795C11.4017 33.9623 14.3062 34.7516 16.5097 35.3185C16.5524 35.2088 16.6225 35.1082 16.7322 35.0259C18.5243 33.7154 21.8403 32.0787 22.3706 29.7106Z" fill="#000072"/>
<path d="M19.5057 27.2054C21.3466 26.6263 22.7882 27.8515 22.3706 29.7106C21.8403 32.0787 18.5243 33.7154 16.7322 35.0259C16.6225 35.1082 16.5524 35.2088 16.5098 35.3185C14.3062 34.7516 11.4017 33.9623 10.3624 31.6795C8.75623 28.1502 14.611 27.6778 15.9642 30.2044C16.1928 30.6341 16.9303 30.5549 17.034 30.0642C17.3144 28.7323 18.1799 27.6229 19.5057 27.2054Z" fill="#FF2247"/>
<path d="M13.5412 43.1513C16.0008 46.7233 12.2673 50.2983 9.75895 52.5414C6.07725 50.2769 3.5415 46.7994 2.21268 42.5173C2.2523 42.4808 2.27668 42.432 2.27058 42.3771C2.11515 41.1489 7.74437 40.835 8.39964 40.8533C10.3045 40.9112 12.4044 41.4994 13.5412 43.1513Z" fill="#FACCE3"/>
</g>
<g clip-path="url(#clip1_22_412)">
<path d="M134.377 17.1338C133.45 11.7468 129.201 8.68121 124.623 8.88044C124.492 8.88606 124.368 8.87129 124.251 8.83839C123.599 8.66002 123.187 7.9471 123.42 7.26237C125.494 1.16372 131.784 1.18099 129.62 5.14163C134.276 3.4123 141.673 7.77153 136.854 9.53042C140.917 11.8029 140.975 15.0897 138.195 14.3159C138.403 14.522 138.592 14.7271 138.765 14.9302C138.765 14.9302 138.766 14.9309 138.765 14.9319C142.062 18.806 139.139 21.8272 134.377 17.1338Z" fill="#FF2247"/>
<g opacity="0.55">
<path d="M130.009 4.16591C129.256 2.54605 125.138 3.57189 123.508 8.24695C123.349 7.9595 123.303 7.60715 123.42 7.26237C125.307 1.71518 130.681 1.22781 130.009 4.16591Z" fill="white"/>
</g>
<g opacity="0.55">
<path d="M138.319 8.46446C137.408 6.71415 133.279 4.8343 129.666 6.06607L128.568 6.44353C128.312 6.53166 128.126 6.19212 128.341 6.02644C129.245 5.32793 130.112 4.98456 130.112 4.98456C133.961 3.93195 139.224 6.56008 138.319 8.46446Z" fill="white"/>
</g>
<path d="M136.421 19.1932C135.716 18.7926 134.943 18.2045 134.121 17.3941C134.066 17.3406 134.03 17.2713 134.017 17.1959C133.176 12.311 129.32 9.04217 124.639 9.24586C124.121 9.26836 123.624 9.03213 123.31 8.61364C122.994 8.19105 122.905 7.6419 123.075 7.14452C124.156 3.96558 126.402 2.29741 128.148 2.0541C129.039 1.92997 129.769 2.17781 130.154 2.7337C130.355 3.02526 130.592 3.61269 130.274 4.56631C132.924 3.95214 136.103 4.88811 137.745 6.2532C138.528 6.90362 138.881 7.5952 138.767 8.25366C138.676 8.78087 138.299 9.22518 137.644 9.57935C139.975 11.0848 140.803 12.9148 140.371 13.9647C140.166 14.4618 139.724 14.7451 139.125 14.7895C140.823 16.8259 140.823 18.5499 140.018 19.3622C139.346 20.0399 138.068 20.1288 136.421 19.1932ZM134.716 16.9548C136.945 19.1178 138.805 19.5487 139.499 18.8479C140.156 18.1846 139.832 16.4617 137.938 14.5747C137.82 14.4575 137.796 14.2757 137.88 14.1322C137.963 13.9889 138.133 13.9198 138.293 13.9642C138.641 14.0611 139.473 14.2274 139.696 13.6863C139.986 12.9822 139.226 11.2762 136.676 9.84917C136.555 9.77558 136.479 9.64351 136.491 9.50132C136.502 9.35891 136.595 9.23663 136.729 9.18758C137.522 8.89836 137.977 8.53213 138.048 8.1286C138.114 7.74817 137.84 7.28124 137.279 6.8144C135.621 5.4367 132.199 4.57314 129.747 5.48406C129.604 5.537 129.444 5.49591 129.344 5.38076C129.244 5.2656 129.226 5.10051 129.299 4.96681C129.729 4.17976 129.819 3.5342 129.553 3.14861C129.332 2.82809 128.856 2.69273 128.249 2.77723C126.724 2.98955 124.747 4.49501 123.766 7.37928C123.673 7.65232 123.72 7.94248 123.895 8.17539C124.066 8.404 124.326 8.52806 124.607 8.51603C129.629 8.29756 133.769 11.762 134.716 16.9548Z" fill="#000072"/>
<g opacity="0.3">
<path d="M134.377 17.1338C133.817 13.8798 132.044 11.4718 129.719 10.1202C131.655 10.5219 134.864 11.5376 135.501 14.255C136.406 18.268 140.285 18.2318 138.765 14.9319C142.062 18.806 139.139 21.8272 134.377 17.1338Z" fill="#000072"/>
</g>
<g opacity="0.3">
<path d="M138.195 14.3159C138.195 14.3159 137.143 12.9658 135.761 12.0412C136.922 11.4758 139.324 14.2395 139.852 12.3555C139.852 12.3552 140.75 14.8392 138.195 14.3159Z" fill="#000072"/>
</g>
<g opacity="0.3">
<path d="M136.854 9.53042C136.854 9.53042 135.6 8.76531 133.904 8.97718C134.64 7.20687 138.684 9.36826 137.978 6.91469C137.978 6.91469 139.002 8.52206 136.854 9.53042Z" fill="#000072"/>
</g>
</g>
<defs>
<clipPath id="clip0_22_412">
<rect width="60.6627" height="55" fill="white" transform="translate(0 3)"/>
</clipPath>
<clipPath id="clip1_22_412">
<rect width="21.003" height="12" fill="white" transform="translate(126.926) rotate(29.5942)"/>
</clipPath>
</defs>
</svg>
