<svg width="19" height="14" viewBox="0 0 19 14" fill="none" xmlns="http://www.w3.org/2000/svg">
<g clip-path="url(#clip0_1_67)">
<path d="M4.80973 7.99018C4.73902 9.1922 5.65821 10.1821 6.86023 10.2528C8.06225 10.1821 8.98145 9.12149 8.91074 7.91947C8.98145 6.71745 8.06225 5.65684 6.86023 5.58614C5.65821 5.72755 4.73902 6.78816 4.80973 7.99018ZM7.42589 7.99018C7.42589 8.48513 7.14306 8.90937 6.78953 8.90937C6.43599 8.90937 6.15316 8.48513 6.15316 7.99018C6.15316 7.49523 6.5067 7.07098 6.86023 7.07098C7.21377 7.07098 7.42589 7.49523 7.42589 7.99018Z" fill="#111111"/>
<path d="M11.4562 5.65656C10.2542 5.72726 9.33497 6.78787 9.40568 7.98989C9.33497 9.19191 10.2542 10.1818 11.4562 10.3232C12.6582 10.2525 13.5774 9.19191 13.5067 7.98989C13.5774 6.78787 12.6582 5.72726 11.4562 5.65656ZM11.4562 8.83837C11.1026 8.83837 10.8198 8.41413 10.8198 7.91918C10.8198 7.42423 11.1026 6.99999 11.4562 6.99999C11.8097 6.99999 12.0925 7.42423 12.0925 7.91918C12.0925 8.41413 11.8097 8.83837 11.4562 8.83837Z" fill="#111111"/>
<path d="M16.6869 3.11101C16.6162 3.0403 16.6162 2.96959 16.6162 2.96959C15.4141 1.48475 13.7172 0.424139 11.8081 -0.000103343C11.4545 -0.141517 11.0303 0.141311 10.9596 0.494846C10.8889 0.848382 11.101 1.27262 11.4545 1.34333C11.4545 1.34333 11.4545 1.34333 11.5253 1.34333C13.0808 1.69687 14.4949 2.54535 15.4848 3.74737C16.404 5.93929 16.9697 8.27262 16.9697 10.6767C15.9798 11.5959 14.7778 12.2322 13.4343 12.4443V12.1615C13.4343 12.1615 13.4343 12.1615 13.4343 12.0908C14.2828 11.7373 15.1313 11.313 15.8384 10.6767C16.1212 10.4645 16.1919 9.96959 15.9798 9.68677C15.7677 9.40394 15.2727 9.33323 14.9899 9.54535C13.3636 10.8181 11.3131 11.4544 9.19192 11.3837C7.14141 11.4544 5.09091 10.8181 3.46465 9.54535C3.18182 9.33323 2.68687 9.33323 2.47475 9.68677C2.26263 10.0403 2.26263 10.4645 2.61616 10.6767C3.32323 11.2423 4.17172 11.7373 5.0202 12.0908V12.4443C3.67677 12.2322 2.47475 11.5959 1.48485 10.6767C1.48485 8.27262 1.9798 5.93929 2.9697 3.74737C3.88889 2.54535 5.30303 1.76757 6.85859 1.41404C7.21212 1.27262 7.42424 0.919089 7.35354 0.565553C7.28283 0.141311 6.92929 -0.0708104 6.50505 -0.000103343C4.59596 0.424139 2.89899 1.41404 1.69697 2.96959V3.0403V3.11101C0.282828 5.93929 0.141414 8.48475 0 10.9595C0 11.1716 0.0707071 11.3837 0.212121 11.5251C1.62626 13.01 3.53535 13.8585 5.58586 14.0706C5.79798 14.0706 5.93939 13.9999 6.08081 13.8585C6.22222 13.7171 6.29293 13.5757 6.29293 13.3635V12.6565C8.13131 13.0807 10.1111 13.0807 11.9495 12.6565V13.3635C11.9495 13.5757 12.0202 13.7171 12.1616 13.8585C12.303 13.9999 12.4444 14.0706 12.6566 14.0706C14.7071 13.9292 16.6869 13.0807 18.101 11.5959C18.2424 11.4544 18.3131 11.2423 18.3131 11.0302C18.1717 8.48475 18.0303 5.93929 16.6869 3.11101Z" fill="#111111"/>
<path d="M14.4234 3.95951C14.6355 3.60598 14.4941 3.18174 14.1406 3.04032C12.585 2.33325 10.888 1.90901 9.12035 1.97972C7.42338 1.90901 5.6557 2.33325 4.10015 3.04032C3.81732 3.18174 3.6759 3.60598 3.81732 3.95951C4.02944 4.31305 4.45368 4.38376 4.80722 4.24234C6.15065 3.60598 7.6355 3.32315 9.12035 3.32315C10.6052 3.32315 12.1608 3.60598 13.5042 4.24234C13.5749 4.31305 13.7163 4.31305 13.8577 4.31305C14.0698 4.31305 14.282 4.17164 14.4234 3.95951Z" fill="#111111"/>
</g>
<defs>
<clipPath id="clip0_1_67">
<rect width="18.3838" height="14" fill="white"/>
</clipPath>
</defs>
</svg>
